<svg xmlns="http://www.w3.org/2000/svg" viewBox="0 0 980 420" width="980" height="420" font-family="'Helvetica Neue', Helvetica, Arial, sans-serif" role="img" aria-label="crawlee request lifecycle">
  <defs>
    <marker id="arrow" viewBox="0 0 10 10" refX="9" refY="5" markerWidth="7" markerHeight="7" orient="auto-start-reverse">
      <path d="M0,0 L10,5 L0,10 z" fill="#0e8a63"/>
    </marker>
    <marker id="arrowLoop" viewBox="0 0 10 10" refX="9" refY="5" markerWidth="7" markerHeight="7" orient="auto-start-reverse">
      <path d="M0,0 L10,5 L0,10 z" fill="#c2761b"/>
    </marker>
    <style>
      .stage{fill:#0e8a63;}
      .stagetxt{fill:#ffffff;font-weight:700;font-size:16px;}
      .sub{fill:#cdeede;font-size:11.5px;}
      .store{fill:#e7f7ef;stroke:#0e8a63;stroke-width:1.5;}
      .storetxt{fill:#08503a;font-weight:700;font-size:16px;}
      .storesub{fill:#3f7a64;font-size:11.5px;}
      .edge{stroke:#0e8a63;stroke-width:2.2;fill:none;}
      .loop{stroke:#c2761b;stroke-width:2.2;fill:none;stroke-dasharray:6 4;}
      .elabel{fill:#0b3b2b;font-size:11.5px;}
      .llabel{fill:#9a5a14;font-size:11.5px;font-weight:700;}
      .pill{fill:#fff4e3;stroke:#c2761b;stroke-width:1.5;}
      .pilltxt{fill:#9a5a14;font-weight:700;font-size:12px;}
      .cap{fill:#3f7a64;font-size:12px;}
    </style>
  </defs>

  <rect x="1" y="1" width="978" height="418" rx="16" fill="#f5fbf8" stroke="#d8efe4"/>

  <!-- enqueue_links loop (drawn first, behind) -->
  <path class="loop" d="M950,231 H963 V34 H320 V66" marker-end="url(#arrowLoop)"/>
  <text class="llabel" x="540" y="25" text-anchor="middle">enqueue_links() — discover &amp; re-queue</text>

  <!-- top lane -->
  <g>
    <rect class="store" x="30" y="70" width="170" height="62" rx="10"/>
    <text class="storetxt" x="115" y="96" text-anchor="middle">Seeds</text>
    <text class="storesub" x="115" y="115" text-anchor="middle">start_urls · sitemap · RSS</text>

    <rect class="stage" x="250" y="70" width="170" height="62" rx="10"/>
    <text class="stagetxt" x="335" y="96" text-anchor="middle">Request Queue</text>
    <text class="sub" x="335" y="115" text-anchor="middle">dedup · resumable</text>

    <rect class="stage" x="540" y="70" width="170" height="62" rx="10"/>
    <text class="stagetxt" x="625" y="96" text-anchor="middle">Fetch engine</text>
    <text class="sub" x="625" y="115" text-anchor="middle">HTTP · browser</text>

    <rect class="stage" x="760" y="70" width="190" height="62" rx="10"/>
    <text class="stagetxt" x="855" y="96" text-anchor="middle">Dispatch</text>
    <text class="sub" x="855" y="115" text-anchor="middle">HTML · PDF · other</text>
  </g>

  <!-- robots gate pill -->
  <rect class="pill" x="437" y="86" width="86" height="30" rx="15"/>
  <text class="pilltxt" x="480" y="105" text-anchor="middle">robots.txt</text>

  <!-- top arrows -->
  <line class="edge" x1="200" y1="101" x2="250" y2="101" marker-end="url(#arrow)"/>
  <line class="edge" x1="420" y1="101" x2="437" y2="101" marker-end="url(#arrow)"/>
  <line class="edge" x1="523" y1="101" x2="540" y2="101" marker-end="url(#arrow)"/>
  <line class="edge" x1="710" y1="101" x2="760" y2="101" marker-end="url(#arrow)"/>

  <!-- dispatch -> handler -->
  <line class="edge" x1="855" y1="132" x2="855" y2="200" marker-end="url(#arrow)"/>

  <!-- middle/bottom lane -->
  <g>
    <rect class="stage" x="760" y="200" width="190" height="62" rx="10"/>
    <text class="stagetxt" x="855" y="226" text-anchor="middle">Handler (ctx)</text>
    <text class="sub" x="855" y="245" text-anchor="middle">your scraping code</text>

    <rect class="store" x="470" y="200" width="170" height="62" rx="10"/>
    <text class="storetxt" x="555" y="226" text-anchor="middle">Dataset</text>
    <text class="storesub" x="555" y="245" text-anchor="middle">memory · jsonl · duckdb</text>

    <rect class="store" x="250" y="200" width="170" height="62" rx="10"/>
    <text class="storetxt" x="335" y="226" text-anchor="middle">cr_collect()</text>
    <text class="storesub" x="335" y="245" text-anchor="middle">→ tibble</text>

    <rect class="store" x="30" y="200" width="190" height="62" rx="10"/>
    <text class="storetxt" x="125" y="226" text-anchor="middle">RAG</text>
    <text class="storesub" x="125" y="245" text-anchor="middle">chunk → embed → export</text>
  </g>

  <!-- handler -> dataset (push_data) -->
  <line class="edge" x1="760" y1="231" x2="640" y2="231" marker-end="url(#arrow)"/>
  <text class="elabel" x="700" y="222" text-anchor="middle">push_data()</text>
  <!-- dataset -> collect -> rag -->
  <line class="edge" x1="470" y1="231" x2="420" y2="231" marker-end="url(#arrow)"/>
  <line class="edge" x1="250" y1="231" x2="220" y2="231" marker-end="url(#arrow)"/>

  <!-- caption -->
  <line x1="30" y1="300" x2="950" y2="300" stroke="#d8efe4" stroke-width="1.5"/>
  <text class="cap" x="30" y="328">
    <tspan font-weight="700" fill="#0e8a63">Engines:</tspan> sequential · parallel · autoscale (AIMD) · streaming pool
  </text>
  <text class="cap" x="30" y="352">
    <tspan font-weight="700" fill="#c2761b">Reproducible &amp; resumable:</tspan> cr_persist(dir) checkpoints the Request Queue + Dataset to a run directory and resumes an interrupted crawl.
  </text>
  <text class="cap" x="30" y="376">
    <tspan font-weight="700" fill="#0e8a63">Politeness:</tspan> robots.txt is respected by default; rate limits and retries are built in.
  </text>
</svg>
